<svg width="33" height="35" viewBox="0 0 33 35" fill="none" xmlns="http://www.w3.org/2000/svg">
<rect x="0.0710449" y="2.92877" width="32" height="32" rx="7.89062" transform="rotate(0.0805075 0.0710449 2.92877)" fill="#4B85F7"/>
<path d="M20.6525 18.7349C21.9108 18.9713 22.9446 19.6021 23.7538 20.6272C24.563 21.6524 24.9667 22.8263 24.9648 24.1489C24.9632 25.3436 24.663 26.3992 24.0644 27.3157C23.4871 28.2109 22.6435 28.9137 21.5334 29.4241C20.4234 29.9346 19.111 30.1887 17.5964 30.1866L7.96437 30.1731L7.99575 7.83708L17.2117 7.85003C18.7264 7.85216 20.0274 8.09932 21.1147 8.59151C22.2233 9.08374 23.0544 9.76757 23.6078 10.643C24.1826 11.5185 24.4692 12.5109 24.4676 13.6202C24.4658 14.9216 24.1123 16.0091 23.4071 16.8827C22.7232 17.7564 21.805 18.3738 20.6525 18.7349ZM12.4628 17.0594L16.5588 17.0651C17.6255 17.0666 18.4471 16.8331 19.0238 16.3646C19.6005 15.8747 19.8894 15.1818 19.8907 14.2858C19.892 13.3898 19.6049 12.6961 19.0296 12.2046C18.4543 11.7131 17.6333 11.4666 16.5667 11.4651L12.4707 11.4594L12.4628 17.0594ZM16.9615 26.5377C18.0495 26.5392 18.8925 26.2844 19.4906 25.7732C20.1099 25.2621 20.4203 24.5372 20.4216 23.5986C20.423 22.6386 20.104 21.8914 19.4648 21.3572C18.8255 20.8016 17.9619 20.5231 16.8739 20.5216L12.4579 20.5154L12.4495 26.5314L16.9615 26.5377Z" fill="white"/>
</svg>
